<?xml version="1.0" encoding="UTF-8" standalone="no"?>
<svg
   id="Line"
   width="50"
   height="50"
   viewBox="0 0 50 50"
   version="1.1"
   sodipodi:docname="reshot-icon-robot-ZVMGLAU568.svg"
   inkscape:version="1.1.1 (3bf5ae0d25, 2021-09-20)"
   xmlns:inkscape="http://www.inkscape.org/namespaces/inkscape"
   xmlns:sodipodi="http://sodipodi.sourceforge.net/DTD/sodipodi-0.dtd"
   xmlns="http://www.w3.org/2000/svg"
   xmlns:svg="http://www.w3.org/2000/svg"
   xmlns:rdf="http://www.w3.org/1999/02/22-rdf-syntax-ns#"
   xmlns:cc="http://creativecommons.org/ns#"
   xmlns:dc="http://purl.org/dc/elements/1.1/">
  <defs
     id="defs21" />
  <sodipodi:namedview
     id="namedview19"
     pagecolor="#505050"
     bordercolor="#eeeeee"
     borderopacity="1"
     inkscape:pageshadow="0"
     inkscape:pageopacity="0"
     inkscape:pagecheckerboard="0"
     showgrid="false"
     fit-margin-top="0"
     fit-margin-left="0"
     fit-margin-right="0"
     fit-margin-bottom="0"
     inkscape:zoom="11.234375"
     inkscape:cx="31.020862"
     inkscape:cy="28.973574"
     inkscape:window-width="1920"
     inkscape:window-height="991"
     inkscape:window-x="-9"
     inkscape:window-y="-9"
     inkscape:window-maximized="1"
     inkscape:current-layer="Line" />
  <title
     id="title2">robot</title>
  <path
     d="M 47,29.142 V 21 a 5.006,5.006 0 0 0 -5,-5 h -2 v -1 a 15,15 0 0 0 -30,0 v 1 H 8 a 5.006,5.006 0 0 0 -5,5 v 8.142 A 4,4 0 0 0 0,33 v 3 a 1,1 0 0 0 2,0 v -3 a 2,2 0 0 1 4,0 v 3 a 1,1 0 0 0 2,0 V 33 A 4,4 0 0 0 5,29.142 V 21 a 3,3 0 0 1 3,-3 h 2 v 25 a 3,3 0 0 0 3,3 h 2 v 1 a 3,3 0 0 0 3,3 h 2 a 3,3 0 0 0 3,-3 v -1 h 4 v 1 a 3,3 0 0 0 3,3 h 2 a 3,3 0 0 0 3,-3 v -1 h 2 a 3,3 0 0 0 3,-3 V 18 h 2 a 3,3 0 0 1 3,3 v 8.142 A 4,4 0 0 0 42,33 v 3 a 1,1 0 0 0 2,0 v -3 a 2,2 0 0 1 4,0 v 3 a 1,1 0 0 0 2,0 V 33 A 4,4 0 0 0 47,29.142 Z M 25,2 A 13.017,13.017 0 0 1 37.962,14 H 12.038 A 13.017,13.017 0 0 1 25,2 Z m -4,45 a 1,1 0 0 1 -1,1 h -2 a 1,1 0 0 1 -1,-1 v -1 h 4 z m 12,0 a 1,1 0 0 1 -1,1 h -2 a 1,1 0 0 1 -1,-1 v -1 h 4 z m 5,-4 a 1,1 0 0 1 -1,1 H 13 A 1,1 0 0 1 12,43 V 16 h 26 z"
     style="fill:#ffffff;fill-opacity:1"
     id="path8" />
  <path
     d="m 25,4 a 4,4 0 1 0 4,4 4,4 0 0 0 -4,-4 z m 0,6 a 2,2 0 1 1 2,-2 2,2 0 0 1 -2,2 z"
     style="fill:#ffffff;fill-opacity:1"
     id="path10" />
  <path
     d="M 33,20 H 17 a 1,1 0 0 0 -1,1 v 4 a 1,1 0 0 0 1,1 h 16 a 1,1 0 0 0 1,-1 v -4 a 1,1 0 0 0 -1,-1 z m -1,4 H 18 v -2 h 14 z"
     style="fill:#ffffff;fill-opacity:1"
     id="path12" />
  <path
     d="M 33,32 H 17 a 1,1 0 0 0 0,2 h 16 a 1,1 0 0 0 0,-2 z"
     style="fill:#ffffff;fill-opacity:1"
     id="path14" />
  <path
     d="M 33,37 H 17 a 1,1 0 0 0 0,2 h 16 a 1,1 0 0 0 0,-2 z"
     style="fill:#ffffff;fill-opacity:1"
     id="path16" />
  <metadata
     id="metadata838">
    <rdf:RDF>
      <cc:Work
         rdf:about="">
        <dc:title>robot</dc:title>
      </cc:Work>
    </rdf:RDF>
  </metadata>
</svg>
